<svg width="329" height="329" viewBox="0 0 329 329" fill="none" xmlns="http://www.w3.org/2000/svg">
<g clip-path="url(#clip0)">
<path d="M271 6L247 299.2C245.8 312 234.6 322.4 221.8 322.4H106.2C93.4 322.4 82.2 312 81 299.2L57 6H271Z" fill="white"/>
<path d="M109.8 299.6L85.8 6.39999H57.4L81.4 299.6C82.6 312.4 93.8 322.8 106.6 322.8H135C121.8 322.8 110.6 312.4 109.8 299.6Z" fill="white"/>
<path d="M226.2 266.8L236.6 111.6C211.4 120.4 185.8 119.6 163.8 112C133 100.4 91.8 116.4 91.8 116.4L103 266.8H226.2Z" fill="#50C1E9"/>
<path d="M151 108.4C122.6 104.4 91.8 116 91.8 116L103 266.4H129L117.4 116.4C117.4 116.4 132.2 110.8 151 108.4Z" fill="#50C1E9"/>
<path d="M271 0H57.4C55.8 0 54.2 0.8 53 2C51.8 3.2 51.4 4.8 51.4 6.8L75.4 300C76.6 316 90.6 328.8 106.6 328.8H222.2C238.2 328.8 252.2 316 253.4 300L277.4 6.8C277.4 5.2 277 3.6 275.8 2C274.6 0.8 273 0 271 0ZM222.2 316.4H106.2C97 316.4 88.2 308.8 87.4 299.2H241C239.8 308.8 231.4 316.4 222.2 316.4ZM242.2 287.2H86.2L63.8 12.4H264.6L242.2 287.2Z" fill="white"/>
<path d="M97 267.2C97.4 270.4 99.8 272.8 103 272.8H226.2C229.4 272.8 232.2 270.4 232.2 267.2L242.6 112C242.6 110 241.8 108 240.2 106.8C238.6 105.6 236.6 105.2 234.6 106C211.8 114 187.4 114 165.8 106.4C157.8 103.6 148.6 102 138.2 102C113 102 90.2 110.8 89.4 111.2C87 112 85.4 114.8 85.4 117.2L97 267.2ZM138.6 114C147.4 114 155.4 115.2 162.2 117.6C183.4 125.2 207.4 126 230.2 120L220.6 260.8H108.6L97.8 120.8C105.4 118.4 121.8 114 138.6 114Z" fill="white"/>
</g>
<defs>
<clipPath id="clip0">
<rect width="328.8" height="328.8" fill="white"/>
</clipPath>
</defs>
</svg>
